<mxfile host="www.draw.io" modified="2020-01-16T17:01:00.162Z" agent="Mozilla/5.0 (X11; Linux x86_64) AppleWebKit/537.36 (KHTML, like Gecko) Chrome/79.0.3945.117 Safari/537.36" etag="iQGNLjiJnG7G6h89WAVg" version="12.5.5" type="github">
  <diagram id="tb4JaSzjPuxba5Hgo_4P" name="Page-1">
    <mxGraphModel dx="1008" dy="419" grid="1" gridSize="10" guides="1" tooltips="1" connect="1" arrows="1" fold="1" page="1" pageScale="1" pageWidth="850" pageHeight="1100" math="0" shadow="0">
      <root>
        <mxCell id="0"/>
        <mxCell id="1" parent="0"/>
        <mxCell id="9QVbQ-e4IKJLaMXOQWs6-4" value="" style="edgeStyle=orthogonalEdgeStyle;rounded=0;orthogonalLoop=1;jettySize=auto;html=1;" parent="1" source="9QVbQ-e4IKJLaMXOQWs6-1" edge="1">
          <mxGeometry relative="1" as="geometry">
            <mxPoint x="350" y="160" as="targetPoint"/>
          </mxGeometry>
        </mxCell>
        <mxCell id="9QVbQ-e4IKJLaMXOQWs6-1" value="Rebase with branch name" style="ellipse;whiteSpace=wrap;html=1;fillColor=#d5e8d4;strokeColor=#82b366;" parent="1" vertex="1">
          <mxGeometry x="290" y="50" width="120" height="80" as="geometry"/>
        </mxCell>
        <mxCell id="9QVbQ-e4IKJLaMXOQWs6-6" value="Calculate delta between two branch refs" style="rounded=0;whiteSpace=wrap;html=1;fillColor=#d5e8d4;strokeColor=#82b366;" parent="1" vertex="1">
          <mxGeometry x="295" y="160" width="110" height="50" as="geometry"/>
        </mxCell>
        <mxCell id="9QVbQ-e4IKJLaMXOQWs6-7" value="delta: calculated ephimeral fixups and woql fixup" style="text;html=1;strokeColor=none;fillColor=none;align=center;verticalAlign=middle;whiteSpace=wrap;rounded=0;" parent="1" vertex="1">
          <mxGeometry x="410" y="150" width="130" height="40" as="geometry"/>
        </mxCell>
        <mxCell id="9QVbQ-e4IKJLaMXOQWs6-8" value="Create a new layer with the delta" style="rounded=0;whiteSpace=wrap;html=1;fillColor=#d5e8d4;strokeColor=#82b366;" parent="1" vertex="1">
          <mxGeometry x="290" y="260" width="120" height="60" as="geometry"/>
        </mxCell>
        <mxCell id="9QVbQ-e4IKJLaMXOQWs6-9" value="" style="endArrow=classic;html=1;exitX=0.5;exitY=1;exitDx=0;exitDy=0;entryX=0.5;entryY=0;entryDx=0;entryDy=0;" parent="1" source="9QVbQ-e4IKJLaMXOQWs6-6" target="9QVbQ-e4IKJLaMXOQWs6-8" edge="1">
          <mxGeometry width="50" height="50" relative="1" as="geometry">
            <mxPoint x="530" y="310" as="sourcePoint"/>
            <mxPoint x="580" y="260" as="targetPoint"/>
          </mxGeometry>
        </mxCell>
        <mxCell id="9QVbQ-e4IKJLaMXOQWs6-27" value="" style="edgeStyle=orthogonalEdgeStyle;rounded=0;orthogonalLoop=1;jettySize=auto;html=1;" parent="1" source="9QVbQ-e4IKJLaMXOQWs6-10" target="9QVbQ-e4IKJLaMXOQWs6-26" edge="1">
          <mxGeometry relative="1" as="geometry"/>
        </mxCell>
        <mxCell id="9QVbQ-e4IKJLaMXOQWs6-10" value="Write all the commits from derived branch to repo metadata graph" style="rounded=0;whiteSpace=wrap;html=1;fillColor=#d5e8d4;strokeColor=#82b366;" parent="1" vertex="1">
          <mxGeometry x="280" y="520" width="140" height="60" as="geometry"/>
        </mxCell>
        <mxCell id="9QVbQ-e4IKJLaMXOQWs6-23" value="Yes" style="edgeStyle=orthogonalEdgeStyle;rounded=0;orthogonalLoop=1;jettySize=auto;html=1;entryX=0.5;entryY=0;entryDx=0;entryDy=0;" parent="1" source="9QVbQ-e4IKJLaMXOQWs6-15" target="9QVbQ-e4IKJLaMXOQWs6-10" edge="1">
          <mxGeometry relative="1" as="geometry">
            <mxPoint x="350" y="490" as="targetPoint"/>
          </mxGeometry>
        </mxCell>
        <mxCell id="9QVbQ-e4IKJLaMXOQWs6-15" value="Passed constraints?" style="rhombus;whiteSpace=wrap;html=1;fillColor=#d5e8d4;strokeColor=#82b366;" parent="1" vertex="1">
          <mxGeometry x="310" y="360" width="80" height="80" as="geometry"/>
        </mxCell>
        <mxCell id="9QVbQ-e4IKJLaMXOQWs6-16" value="" style="endArrow=classic;html=1;exitX=0.5;exitY=1;exitDx=0;exitDy=0;entryX=0.5;entryY=0;entryDx=0;entryDy=0;" parent="1" source="9QVbQ-e4IKJLaMXOQWs6-8" target="9QVbQ-e4IKJLaMXOQWs6-15" edge="1">
          <mxGeometry width="50" height="50" relative="1" as="geometry">
            <mxPoint x="350" y="320" as="sourcePoint"/>
            <mxPoint x="350" y="440" as="targetPoint"/>
          </mxGeometry>
        </mxCell>
        <mxCell id="9QVbQ-e4IKJLaMXOQWs6-17" value="Require fixup query to resolve issues" style="rounded=0;whiteSpace=wrap;html=1;fillColor=#d5e8d4;strokeColor=#82b366;" parent="1" vertex="1">
          <mxGeometry x="450" y="380" width="90" height="40" as="geometry"/>
        </mxCell>
        <mxCell id="9QVbQ-e4IKJLaMXOQWs6-18" value="No" style="endArrow=classic;html=1;exitX=1;exitY=0.5;exitDx=0;exitDy=0;" parent="1" edge="1">
          <mxGeometry width="50" height="50" relative="1" as="geometry">
            <mxPoint x="391" y="400" as="sourcePoint"/>
            <mxPoint x="451" y="400" as="targetPoint"/>
          </mxGeometry>
        </mxCell>
        <mxCell id="9QVbQ-e4IKJLaMXOQWs6-26" value="Report success to user" style="ellipse;whiteSpace=wrap;html=1;fillColor=#d5e8d4;strokeColor=#82b366;" parent="1" vertex="1">
          <mxGeometry x="290" y="640" width="120" height="80" as="geometry"/>
        </mxCell>
      </root>
    </mxGraphModel>
  </diagram>
</mxfile>
